<svg xmlns="http://www.w3.org/2000/svg" width="191" height="34" xmlns:v="https://vecta.io/nano"><path fill="#fff212" d="M117.129 16.27l-3.271 3.77c-1.646 2.073-3.236 4.202-4.574 6.49-.582.986-1.043 2.046-1.302 3.163.108.038.195-.079.297-.104 1.211-.523 2.17-1.462 3.084-2.388 1.753-1.69 3.229-3.635 4.803-5.484.864-1.038 1.749-2.104 2.225-3.387.242-.712.298-1.486.65-2.16-.164-.633.007-1.29.279-1.866l-2.191 1.966m53.284-.789l-3.75 4.761c1.475-.449 2.522-1.662 3.421-2.849.743-.984 1.366-2.087 1.639-3.299-.487.414-.907.895-1.31 1.387M99.149.682c.223-.293.52-.561.891-.639.546-.125 1.112.039 1.604.279.586.311.901.965.987 1.6.073.453-.003.91-.088 1.354l-.916 5.62-.42 4.373-.267 5.771.006 5.21c.056 1.313.167 2.632.479 3.913.196.69.414 1.418.93 1.946.155.179.404.266.639.218.419-.081.773-.365 1.206-.406.217-2.623 1.357-5.059 2.663-7.305a42.32 42.32 0 0 1 2.729-4.098l2.054-2.519 1.448-1.58c.359-.368.77-.682 1.145-1.033 1.323-1.186 2.728-2.349 4.406-2.991.604-.221 1.235-.424 1.887-.396.894.031 1.801.405 2.372 1.109.359.431.515.984.64 1.521.286 1.299.128 2.735-.628 3.852.128.438.244.899.166 1.356l-1.14 6.909c-.118.916-.103 1.872.227 2.746.238-.608.602-1.226 1.209-1.523.405-.177.86-.285 1.304-.201.411.07.79.284 1.084.58l.746-4.993.295-2.594c.071-1.293.082-2.633.594-3.847.512-1.172 2.105-1.679 3.205-1.028.573.297.869.92 1.007 1.522.071.381.198.768.134 1.16-.073.659-.255 1.299-.406 1.943.616-1.126 1.45-2.109 2.245-3.109.713-.884 1.556-1.69 2.58-2.199 1.166-.539 2.601-.154 3.501.712.893.97 1.334 2.276 1.468 3.568l.53 5.429c.231 1.833.258 3.738 1.002 5.459.479-.46 1.158-.925 1.848-.641-.263-1.522-.077-3.089.34-4.566.652-2.269 1.753-4.381 2.996-6.378.75-1.192 1.591-2.334 2.566-3.353.734-.777 1.552-1.488 2.484-2.019 1.139-.651 2.434-1.069 3.753-1.064 1.283.114 2.492.643 3.581 1.31.876.528 1.466 1.554 1.376 2.587-.171 1.244-1.627 2.08-2.799 1.669-.89-.26-1.401-1.111-2.188-1.543-1.044-.185-1.97.501-2.701 1.16-.799.738-1.437 1.632-2.041 2.531-.816 1.247-1.497 2.576-2.129 3.924-.432.934-.825 1.891-1.085 2.888-.219.869-.315 1.785-.146 2.672.097.478.434.965.941 1.049 1.133.14 2.288-.087 3.336-.522 1.107-.458 2.106-1.144 3.01-1.924.918-.758 1.625-1.726 2.329-2.676.222-.285.407-.627.749-.789.584-.296 1.304-.125 1.806.263.673-2.018 1.706-3.894 2.859-5.673 1.027-1.567 2.114-3.11 3.42-4.461.817-.828 1.733-1.576 2.771-2.11.771-.388 1.612-.648 2.477-.7.905-.026 1.833.354 2.413 1.06.562.725.84 1.643.878 2.552.053 1.039-.233 2.056-.557 3.032-.417 1.184-1.023 2.292-1.706 3.343-.911 1.422-2.082 2.744-3.608 3.518-.984.475-2.093.731-3.187.626-.526-.046-1.044-.156-1.551-.302-.453 1.476-.828 3.008-.752 4.562.045.353.438.487.743.537 1.151.213 2.312-.176 3.307-.74.859-.471 1.634-1.079 2.389-1.7 1.537-1.284 2.923-2.792 3.855-4.577.187-.314.27-.695.546-.952.572-.535 1.501-.556 2.16-.168 0-2.422-.138-4.844-.369-7.255-.034-.397-.112-.801-.022-1.197.196-.974.972-1.826 1.945-2.064a2.21 2.21 0 0 1 2.293.909c.284.398.452.867.538 1.348.59-.958 1.281-1.871 2.159-2.583.638-.513 1.375-.926 2.181-1.097 1.047-.228 2.187-.095 3.117.449.674.378 1.125 1.062 1.359 1.786.26.788.337 1.75-.193 2.445-.616.656-1.722.824-2.483.326-.358-.263-.489-.709-.688-1.086a12.34 12.34 0 0 0-2.45 2.744c-1.049 1.519-2.006 3.128-2.578 4.892-.602 1.8-.723 3.717-.674 5.602l.141 3.803c-.091 1.599-2.05 2.697-3.476 2.004-.56-.256-.93-.803-1.091-1.381-.262-.845-.13-1.733-.067-2.596l.219-3.069a16.25 16.25 0 0 1-3.384 4.55c-1.191 1.103-2.509 2.099-4.005 2.751-1.2.533-2.5.855-3.814.89-1.172-.003-2.372-.262-3.361-.911-.804-.517-1.379-1.322-1.774-2.18-.445-.981-.639-2.066-.621-3.142-.652.842-1.44 1.562-2.192 2.312-.978.931-1.894 1.976-3.12 2.585-.719.379-1.445.751-2.217 1.014-1.288.374-2.686.426-3.985.069-1.264-.321-2.356-1.176-3.035-2.28-.321.687-.989 1.116-1.653 1.428-1.031.438-2.247.223-3.175-.364-.889-.55-1.469-1.465-1.915-2.385-.64-1.354-.956-2.833-1.196-4.303-.39-2.435-.481-4.903-.801-7.346-3.106 4.212-5.911 8.737-7.519 13.749-.161.5-.483.956-.93 1.24a2.22 2.22 0 0 1-2.459-.07c-.374-.275-.61-.71-.683-1.164-.095-.563.019-1.132.11-1.687-.607.846-1.604 1.36-2.631 1.466-1.291.145-2.683-.292-3.55-1.286-.855-1.018-1.214-2.352-1.349-3.649-1.545 1.912-3.338 3.612-5.236 5.168-1.35 1.072-2.843 2.092-4.579 2.377-.881.168-1.788-.108-2.528-.587-1.003.881-2.467 1.217-3.744.805-.979-.276-1.814-.931-2.438-1.721-.738-.932-1.275-2.015-1.62-3.149-.558-1.749-.82-3.582-.882-5.413a115.12 115.12 0 0 1 .831-16.127c.221-1.714.464-3.432.912-5.104.152-.569.324-1.151.681-1.63"/><path fill="#fff" d="M.451 21.223l6.807-.231.005 2.976c.01.627.226 1.256.659 1.717.492.582 1.233.929 1.994.955.85.073 1.653-.346 2.283-.882.504-.448.721-1.12.831-1.766h6.807c.017 1.937-.666 3.852-1.843 5.384-1.443 1.917-3.577 3.353-5.951 3.792-1.422.258-2.9.23-4.306-.112-1.226-.297-2.377-.87-3.384-1.628-.994-.752-1.891-1.65-2.552-2.713C.91 27.303.474 25.632.452 23.968l-.001-2.745m72.93 10.843l.004-19.386 6.804.002.001 9.817c.066.992.674 1.904 1.512 2.42.607.359 1.358.41 2.038.264.529-.115.994-.423 1.376-.799.552-.463.799-1.192.844-1.892l.001-9.811 6.803-.003.005 19.388c-1.196.008-2.417-.212-3.471-.799-.365-.199-.705-.44-1.029-.699-1.171.809-2.551 1.294-3.965 1.44-1.398.139-2.833.047-4.177-.383-.792-.248-1.544-.613-2.244-1.058-1.213 1.107-2.896 1.519-4.502 1.499M31.723 12.683c1.226-.003 2.47.257 3.54.871 1.167.671 2.147 1.695 2.69 2.936.416.94.576 1.977.577 3.001h-6.808l.001-6.808m21.464-.117h6.808l-.001 9.291c-.027.683.075 1.402.479 1.971.525.79 1.469 1.229 2.407 1.205l-.001 6.807c-2.322.015-4.614-.886-6.346-2.424-.902.787-1.932 1.439-3.058 1.854-1.049.391-2.171.567-3.288.569l-.002-6.574c.812-.014 1.533-.484 2.08-1.051.35-.417.687-.868.842-1.397.103-.334.076-.687.079-1.031l.001-9.22m-13.041.001l6.809-.001.001 9.573c-.013.714.212 1.445.704 1.974.538.624 1.367.932 2.181.919l-.002 6.808c-2.322.016-4.613-.887-6.346-2.424-.873.763-1.865 1.399-2.952 1.814-1.079.417-2.239.608-3.395.608l-.002-6.569c.814-.022 1.539-.488 2.087-1.062.354-.422.693-.879.844-1.416.087-.303.071-.621.071-.934v-9.29m-13.947 1.349c1.601-.923 3.461-1.297 5.293-1.35l-.001 6.69c-.617.005-1.244.165-1.751.527-.798.556-1.256 1.532-1.248 2.497l-.001 9.558h-6.807l-.001-9.556c-.001-1.234.257-2.458.678-3.614.247-.66.526-1.315.906-1.911.726-1.167 1.736-2.158 2.932-2.841m34.258-1.233l2.621-.227c1.299-.018 2.607.224 3.799.746 1.12.489 2.121 1.222 2.987 2.079.758.745 1.399 1.611 1.868 2.567 1.03 2.101 1.204 4.572.648 6.831-.58 2.35-2.171 4.375-4.192 5.672-1.475.947-3.22 1.422-4.963 1.484l.001-6.571c.655.007 1.279-.285 1.752-.728.449-.394.834-.895.952-1.491.126-.667.081-1.385-.212-2.004-.354-.737-1.055-1.306-1.857-1.475-.42-.098-.852-.075-1.278-.077h-2.126v-6.806M.45 11.066l6.806.116c-.021.808.336 1.59.897 2.158a2.83 2.83 0 0 0 1.978.728c2.087 0 4.081.802 5.84 1.87 1.141.713 2.115 1.703 2.752 2.892.835 1.537 1.114 3.313 1.114 5.045l-6.806.001c-.002-.716-.182-1.457-.644-2.02-.402-.505-.985-.848-1.607-1.005-.56-.146-1.145-.062-1.713-.135-1.886-.152-3.722-.905-5.14-2.161-.897-.804-1.717-1.715-2.301-2.774C.821 14.351.445 12.702.45 11.066m52.737-5.769c1.241-.004 2.501.265 3.58.895 1.15.673 2.117 1.688 2.651 2.917.415.939.575 1.974.576 2.996l-6.808.001.001-6.809m-13.041-.691l6.347-.001v5.999h-6.347V4.606M8.358 1.523c1.449-.244 2.957-.202 4.378.185 1.334.361 2.559 1.065 3.596 1.972.798.708 1.558 1.477 2.124 2.387.912 1.425 1.358 3.119 1.379 4.804l.002 2.966c-2.27 0-4.538.001-6.808-.001l-.003-2.888c-.006-.725-.281-1.453-.808-1.96-.505-.522-1.23-.795-1.95-.805-.81-.036-1.562.368-2.165.875-.515.447-.734 1.126-.847 1.777H.448a8.95 8.95 0 0 1 1.771-5.399c1.465-2 3.68-3.491 6.139-3.913"/></svg>